<mxfile host="app.diagrams.net" modified="2023-01-28T12:22:54.270Z" agent="5.0 (X11; Ubuntu)" etag="jg1zn5U0Vvmikq-PeVhV" version="20.5.3" type="github">
  <diagram id="PCdTuPednkusaLk7QfRH" name="Page-1">
    <mxGraphModel dx="6627" dy="3697" grid="0" gridSize="10" guides="1" tooltips="1" connect="1" arrows="1" fold="1" page="1" pageScale="1" pageWidth="3300" pageHeight="4681" math="0" shadow="0">
      <root>
        <mxCell id="0" />
        <mxCell id="1" parent="0" />
        <mxCell id="fZpmpn9y3ByHib3t7wht-28" value="Surveillance Systeme für Infektionskrankheiten -&amp;nbsp; &quot;Daten für Taten&quot;" style="text;html=1;strokeColor=none;fillColor=none;align=center;verticalAlign=middle;whiteSpace=wrap;rounded=0;fontSize=80;fontStyle=1" parent="1" vertex="1">
          <mxGeometry x="6" y="299" width="3292" height="299" as="geometry" />
        </mxCell>
        <mxCell id="fZpmpn9y3ByHib3t7wht-30" style="edgeStyle=orthogonalEdgeStyle;curved=1;orthogonalLoop=1;jettySize=auto;html=1;exitX=0.5;exitY=1;exitDx=0;exitDy=0;fontSize=29;endArrow=classic;endFill=1;strokeWidth=1;" parent="1" edge="1">
          <mxGeometry relative="1" as="geometry">
            <mxPoint x="1645" y="630" as="sourcePoint" />
            <mxPoint x="1645" y="630" as="targetPoint" />
          </mxGeometry>
        </mxCell>
        <mxCell id="lvOyBxjIi6jX6nLMWF4I-3" value="&lt;br style=&quot;font-size: 38px;&quot;&gt;&lt;div style=&quot;font-size: 38px;&quot;&gt;Ein infektiologisches Surveillance System erfasst, bewertet und beschreibt das Auftreten von Infektionskrankheiten um diesen vorzubeugen und die Weiterverbreitung zu minimieren. Also in kurz: &quot;Daten für Taten&quot;&lt;br&gt;&lt;/div&gt;&lt;div style=&quot;font-size: 38px;&quot;&gt;&lt;br style=&quot;font-size: 38px;&quot;&gt;&lt;/div&gt;" style="text;html=1;strokeColor=none;fillColor=none;align=left;verticalAlign=top;whiteSpace=wrap;rounded=0;fontSize=38;" parent="1" vertex="1">
          <mxGeometry x="343" y="728" width="992" height="377" as="geometry" />
        </mxCell>
        <mxCell id="kd0Iuf0_5TcYoFRnLQND-27" value="Meldende" style="rounded=1;whiteSpace=wrap;html=1;fillColor=#006ec7;strokeColor=none;align=center;spacing=2;verticalAlign=middle;fontStyle=0;fontSize=51;strokeWidth=3;fontColor=#FFFFFF;" parent="1" vertex="1">
          <mxGeometry x="1327.5" y="1455" width="600" height="200" as="geometry" />
        </mxCell>
        <mxCell id="kd0Iuf0_5TcYoFRnLQND-7" value="Gesundheitsämter" style="rounded=1;whiteSpace=wrap;html=1;fillColor=#00345E;strokeColor=none;strokeWidth=3;fontStyle=0;fontSize=51;fontColor=#FFFFFF;" parent="1" vertex="1">
          <mxGeometry x="2321.5836363636367" y="1743" width="600" height="200" as="geometry" />
        </mxCell>
        <mxCell id="52qf8ySm6mOf2ibHxot5-19" value="" style="edgeStyle=orthogonalEdgeStyle;rounded=1;orthogonalLoop=1;jettySize=auto;html=1;fontSize=50;fontColor=#FFFFFF;" parent="1" source="kd0Iuf0_5TcYoFRnLQND-8" target="kd0Iuf0_5TcYoFRnLQND-17" edge="1">
          <mxGeometry relative="1" as="geometry" />
        </mxCell>
        <mxCell id="kd0Iuf0_5TcYoFRnLQND-8" value="Landesämter" style="rounded=1;whiteSpace=wrap;html=1;fillColor=#00345E;strokeColor=none;strokeWidth=3;fontStyle=0;fontSize=51;fontColor=#FFFFFF;" parent="1" vertex="1">
          <mxGeometry x="1327.5" y="2030.6923076923076" width="600" height="200" as="geometry" />
        </mxCell>
        <mxCell id="fZpmpn9y3ByHib3t7wht-33" style="orthogonalLoop=1;jettySize=auto;html=1;exitX=1;exitY=0.5;exitDx=0;exitDy=0;fontSize=30;endArrow=classic;endFill=1;strokeWidth=10;fillColor=#d5e8d4;strokeColor=#33a02c;rounded=0;" parent="1" edge="1">
          <mxGeometry relative="1" as="geometry">
            <mxPoint x="935.9963636363636" y="1813.1015384615384" as="sourcePoint" />
            <mxPoint x="1323" y="1813" as="targetPoint" />
          </mxGeometry>
        </mxCell>
        <mxCell id="fZpmpn9y3ByHib3t7wht-39" value="Lageberichte" style="edgeLabel;html=1;align=center;verticalAlign=middle;resizable=0;points=[];fontSize=33;" parent="fZpmpn9y3ByHib3t7wht-33" vertex="1" connectable="0">
          <mxGeometry x="0.1872" y="1" relative="1" as="geometry">
            <mxPoint x="-41" y="1" as="offset" />
          </mxGeometry>
        </mxCell>
        <mxCell id="kd0Iuf0_5TcYoFRnLQND-9" value="Robert Koch-Institut" style="rounded=1;whiteSpace=wrap;html=1;fillColor=#00345E;strokeColor=none;strokeWidth=3;fontStyle=0;fontSize=51;fontColor=#FFFFFF;" parent="1" vertex="1">
          <mxGeometry x="333.42" y="1743" width="600" height="200" as="geometry" />
        </mxCell>
        <mxCell id="kd0Iuf0_5TcYoFRnLQND-10" value="" style="edgeStyle=orthogonalEdgeStyle;rounded=1;orthogonalLoop=1;jettySize=auto;html=1;exitX=0.5;exitY=1;exitDx=0;exitDy=0;entryX=1;entryY=0.5;entryDx=0;entryDy=0;strokeWidth=10;fillColor=#dae8fc;strokeColor=#1f78b4;fontSize=30;" parent="1" source="kd0Iuf0_5TcYoFRnLQND-7" target="kd0Iuf0_5TcYoFRnLQND-8" edge="1">
          <mxGeometry relative="1" as="geometry">
            <mxPoint x="1815.3490909090922" y="1514.9602122015913" as="sourcePoint" />
            <mxPoint x="2462.658181818183" y="1630.6153846153848" as="targetPoint" />
          </mxGeometry>
        </mxCell>
        <mxCell id="kd0Iuf0_5TcYoFRnLQND-11" value="" style="edgeStyle=orthogonalEdgeStyle;rounded=1;orthogonalLoop=1;jettySize=auto;html=1;exitX=0;exitY=0.5;exitDx=0;exitDy=0;entryX=0.5;entryY=1;entryDx=0;entryDy=0;fillColor=#dae8fc;strokeColor=#1f78b4;strokeWidth=10;fontSize=30;" parent="1" source="kd0Iuf0_5TcYoFRnLQND-8" target="kd0Iuf0_5TcYoFRnLQND-9" edge="1">
          <mxGeometry relative="1" as="geometry">
            <mxPoint x="2925.0218181818186" y="2093.6923076923076" as="sourcePoint" />
            <mxPoint x="2111.261818181818" y="2689.076923076923" as="targetPoint" />
          </mxGeometry>
        </mxCell>
        <mxCell id="kd0Iuf0_5TcYoFRnLQND-14" value="" style="edgeStyle=orthogonalEdgeStyle;rounded=1;orthogonalLoop=1;jettySize=auto;html=1;entryX=0.5;entryY=0;entryDx=0;entryDy=0;fillColor=#f5f5f5;strokeColor=#666666;strokeWidth=10;exitX=0.998;exitY=0.458;exitDx=0;exitDy=0;exitPerimeter=0;fontSize=30;" parent="1" source="kd0Iuf0_5TcYoFRnLQND-27" target="kd0Iuf0_5TcYoFRnLQND-7" edge="1">
          <mxGeometry relative="1" as="geometry">
            <mxPoint x="2749.3236363636365" y="1339.5384615384614" as="sourcePoint" />
            <mxPoint x="2966.634545454546" y="2226" as="targetPoint" />
          </mxGeometry>
        </mxCell>
        <mxCell id="kd0Iuf0_5TcYoFRnLQND-17" value="Bevölkerung und Politik" style="rounded=1;whiteSpace=wrap;html=1;fillColor=#006ec7;strokeColor=none;strokeWidth=3;fontSize=50;fontColor=#FFFFFF;" parent="1" vertex="1">
          <mxGeometry x="1327.5" y="1743" width="600" height="200" as="geometry" />
        </mxCell>
        <mxCell id="fZpmpn9y3ByHib3t7wht-34" value="Berichte" style="orthogonalLoop=1;jettySize=auto;html=1;exitX=0.5;exitY=0;exitDx=0;exitDy=0;entryX=0.5;entryY=1;entryDx=0;entryDy=0;fontSize=33;endArrow=classic;endFill=1;strokeWidth=10;fillColor=#d5e8d4;strokeColor=#33a02c;" parent="1" source="kd0Iuf0_5TcYoFRnLQND-8" target="kd0Iuf0_5TcYoFRnLQND-17" edge="1">
          <mxGeometry relative="1" as="geometry">
            <mxPoint x="1057.0727272727272" y="1882" as="sourcePoint" />
            <mxPoint x="1547.1781818181819" y="1882" as="targetPoint" />
          </mxGeometry>
        </mxCell>
        <mxCell id="fZpmpn9y3ByHib3t7wht-38" value="&lt;font style=&quot;font-size: 33px;&quot;&gt;Empfehlungen&lt;/font&gt;" style="edgeStyle=orthogonalEdgeStyle;curved=1;orthogonalLoop=1;jettySize=auto;html=1;exitX=1;exitY=0.5;exitDx=0;exitDy=0;fontSize=33;endArrow=classic;endFill=1;strokeWidth=10;fillColor=#f8cecc;strokeColor=#e31a1c;" parent="1" edge="1">
          <mxGeometry relative="1" as="geometry">
            <mxPoint x="933.4200000000001" y="1871.9976923076924" as="sourcePoint" />
            <mxPoint x="1323" y="1872" as="targetPoint" />
          </mxGeometry>
        </mxCell>
        <mxCell id="fZpmpn9y3ByHib3t7wht-40" value="Maßnahmen" style="edgeStyle=orthogonalEdgeStyle;orthogonalLoop=1;jettySize=auto;html=1;exitX=0;exitY=0.5;exitDx=0;exitDy=0;fontSize=33;endArrow=classic;endFill=1;strokeWidth=10;fillColor=#f8cecc;strokeColor=#e31a1c;rounded=0;" parent="1" edge="1">
          <mxGeometry relative="1" as="geometry">
            <mxPoint x="2321.587272727273" y="1842.9953846153849" as="sourcePoint" />
            <mxPoint x="1933" y="1843" as="targetPoint" />
          </mxGeometry>
        </mxCell>
        <mxCell id="fZpmpn9y3ByHib3t7wht-41" value="" style="edgeStyle=orthogonalEdgeStyle;rounded=1;orthogonalLoop=1;jettySize=auto;html=1;entryX=0.5;entryY=0;entryDx=0;entryDy=0;fillColor=#f5f5f5;strokeColor=#666666;strokeWidth=10;exitX=0;exitY=0.5;exitDx=0;exitDy=0;fontSize=30;" parent="1" source="kd0Iuf0_5TcYoFRnLQND-27" target="kd0Iuf0_5TcYoFRnLQND-9" edge="1">
          <mxGeometry relative="1" as="geometry">
            <mxPoint x="2054.6685090909104" y="1588.6738461538466" as="sourcePoint" />
            <mxPoint x="2767.818181818182" y="1815.8461538461538" as="targetPoint" />
          </mxGeometry>
        </mxCell>
        <mxCell id="lvOyBxjIi6jX6nLMWF4I-12" value="Ärzt*innen" style="text;html=1;strokeColor=none;fillColor=none;align=left;verticalAlign=middle;whiteSpace=wrap;rounded=0;fontSize=12;flipV=0;fontColor=#FFFFFF;" parent="1" vertex="1">
          <mxGeometry x="1780" y="1605" width="60" height="30" as="geometry" />
        </mxCell>
        <mxCell id="lvOyBxjIi6jX6nLMWF4I-13" value="Labore" style="text;html=1;strokeColor=none;fillColor=none;align=left;verticalAlign=middle;whiteSpace=wrap;rounded=0;fontSize=12;flipV=0;fontColor=#FFFFFF;" parent="1" vertex="1">
          <mxGeometry x="1780" y="1578" width="60" height="30" as="geometry" />
        </mxCell>
        <mxCell id="lvOyBxjIi6jX6nLMWF4I-14" value="§34 Einrichtungen" style="text;html=1;strokeColor=none;fillColor=none;align=left;verticalAlign=middle;whiteSpace=wrap;rounded=0;fontSize=12;flipV=0;fontColor=#FFFFFF;" parent="1" vertex="1">
          <mxGeometry x="1780" y="1472" width="121" height="30" as="geometry" />
        </mxCell>
        <mxCell id="lvOyBxjIi6jX6nLMWF4I-15" value="§36 Einrichtungen" style="text;html=1;strokeColor=none;fillColor=none;align=left;verticalAlign=middle;whiteSpace=wrap;rounded=0;fontSize=12;flipV=0;fontColor=#FFFFFF;" parent="1" vertex="1">
          <mxGeometry x="1780" y="1499" width="121" height="30" as="geometry" />
        </mxCell>
        <mxCell id="lvOyBxjIi6jX6nLMWF4I-17" value="&lt;div&gt;Veterinär&lt;/div&gt;" style="text;html=1;strokeColor=none;fillColor=none;align=left;verticalAlign=middle;whiteSpace=wrap;rounded=0;fontSize=12;flipV=0;fontColor=#FFFFFF;" parent="1" vertex="1">
          <mxGeometry x="1780" y="1525" width="102" height="30" as="geometry" />
        </mxCell>
        <mxCell id="lvOyBxjIi6jX6nLMWF4I-18" value="Pathologie" style="text;html=1;strokeColor=none;fillColor=none;align=left;verticalAlign=middle;whiteSpace=wrap;rounded=0;fontSize=12;flipV=0;fontColor=#FFFFFF;" parent="1" vertex="1">
          <mxGeometry x="1780" y="1552" width="102" height="30" as="geometry" />
        </mxCell>
        <mxCell id="lvOyBxjIi6jX6nLMWF4I-19" value="&lt;div style=&quot;font-size: 26px;&quot;&gt;§6.1&lt;/div&gt;" style="text;html=1;strokeColor=none;fillColor=none;align=left;verticalAlign=middle;whiteSpace=wrap;rounded=0;fontSize=26;flipV=0;" parent="1" vertex="1">
          <mxGeometry x="2097" y="1558" width="42" height="30" as="geometry" />
        </mxCell>
        <mxCell id="lvOyBxjIi6jX6nLMWF4I-20" value="§6.2" style="text;html=1;strokeColor=none;fillColor=none;align=left;verticalAlign=middle;whiteSpace=wrap;rounded=0;fontSize=26;flipV=0;" parent="1" vertex="1">
          <mxGeometry x="2168" y="1558" width="42" height="30" as="geometry" />
        </mxCell>
        <mxCell id="lvOyBxjIi6jX6nLMWF4I-21" value="§6.3" style="text;html=1;strokeColor=none;fillColor=none;align=left;verticalAlign=middle;whiteSpace=wrap;rounded=0;fontSize=26;flipV=0;" parent="1" vertex="1">
          <mxGeometry x="2240" y="1558" width="42" height="30" as="geometry" />
        </mxCell>
        <mxCell id="lvOyBxjIi6jX6nLMWF4I-22" value="§7.1" style="text;html=1;strokeColor=none;fillColor=none;align=left;verticalAlign=middle;whiteSpace=wrap;rounded=0;fontSize=26;flipV=0;" parent="1" vertex="1">
          <mxGeometry x="2311" y="1558" width="42" height="30" as="geometry" />
        </mxCell>
        <mxCell id="lvOyBxjIi6jX6nLMWF4I-23" value="§7.2" style="text;html=1;strokeColor=none;fillColor=none;align=left;verticalAlign=middle;whiteSpace=wrap;rounded=0;fontSize=26;flipV=0;" parent="1" vertex="1">
          <mxGeometry x="2382" y="1558" width="42" height="30" as="geometry" />
        </mxCell>
        <mxCell id="lvOyBxjIi6jX6nLMWF4I-24" value="§7.3&amp;nbsp;&amp;nbsp; § 13" style="text;html=1;strokeColor=none;fillColor=none;align=left;verticalAlign=middle;whiteSpace=wrap;rounded=0;fontSize=26;flipV=0;" parent="1" vertex="1">
          <mxGeometry x="1089" y="1575" width="135" height="30" as="geometry" />
        </mxCell>
        <mxCell id="lvOyBxjIi6jX6nLMWF4I-26" value="§ 11" style="text;html=1;strokeColor=none;fillColor=none;align=left;verticalAlign=middle;whiteSpace=wrap;rounded=0;fontSize=26;flipV=0;" parent="1" vertex="1">
          <mxGeometry x="2639" y="1973" width="57" height="30" as="geometry" />
        </mxCell>
        <mxCell id="BKuAPmNaPNa7pb01AUUk-3" style="edgeStyle=orthogonalEdgeStyle;rounded=0;orthogonalLoop=1;jettySize=auto;html=1;exitX=0.5;exitY=1;exitDx=0;exitDy=0;fontSize=26;fontColor=#FFFFFF;" parent="1" source="3UohO4vcld26_OjE0Bnn-11" target="kd0Iuf0_5TcYoFRnLQND-7" edge="1">
          <mxGeometry relative="1" as="geometry" />
        </mxCell>
        <mxCell id="3UohO4vcld26_OjE0Bnn-11" value="Falldefinitionen § 11(2)" style="text;html=1;strokeColor=none;fillColor=none;align=left;verticalAlign=middle;whiteSpace=wrap;rounded=0;fontSize=26;flipV=0;fontColor=#FFFFFF;" parent="1" vertex="1">
          <mxGeometry x="2470" y="1759" width="286" height="30" as="geometry" />
        </mxCell>
        <mxCell id="3UohO4vcld26_OjE0Bnn-12" value="Signalerkennung" style="text;html=1;strokeColor=none;fillColor=none;align=left;verticalAlign=middle;whiteSpace=wrap;rounded=0;fontSize=12;flipV=0;fontColor=#FFFFFF;" parent="1" vertex="1">
          <mxGeometry x="2365.5" y="1903" width="143" height="30" as="geometry" />
        </mxCell>
        <mxCell id="CSjr7Klqc6vboo9VAY52-15" value="" style="group" parent="1" vertex="1" connectable="0">
          <mxGeometry x="320.9999999999991" y="1207" width="2757.000000000001" height="107" as="geometry" />
        </mxCell>
        <mxCell id="CSjr7Klqc6vboo9VAY52-12" value="Das Meldesystem nach dem Infektionsschutzgesetz" style="rounded=0;whiteSpace=wrap;html=1;fontSize=55;fontColor=#000000;fillColor=none;strokeColor=none;align=left;" parent="CSjr7Klqc6vboo9VAY52-15" vertex="1">
          <mxGeometry x="88.00000000000091" width="2638" height="106" as="geometry" />
        </mxCell>
        <mxCell id="CSjr7Klqc6vboo9VAY52-13" value="" style="endArrow=none;html=1;rounded=0;fontSize=55;" parent="CSjr7Klqc6vboo9VAY52-15" edge="1">
          <mxGeometry width="50" height="50" relative="1" as="geometry">
            <mxPoint y="107" as="sourcePoint" />
            <mxPoint x="2757.000000000001" y="107" as="targetPoint" />
          </mxGeometry>
        </mxCell>
        <mxCell id="CSjr7Klqc6vboo9VAY52-14" value="" style="endArrow=none;html=1;rounded=0;fontSize=55;" parent="CSjr7Klqc6vboo9VAY52-15" edge="1">
          <mxGeometry width="50" height="50" relative="1" as="geometry">
            <mxPoint y="9.094947017729282e-13" as="sourcePoint" />
            <mxPoint x="2757.000000000001" y="9.094947017729282e-13" as="targetPoint" />
          </mxGeometry>
        </mxCell>
        <mxCell id="CSjr7Klqc6vboo9VAY52-16" value="" style="group" parent="1" vertex="1" connectable="0">
          <mxGeometry x="252.9999999999991" y="576" width="2757.000000000001" height="107" as="geometry" />
        </mxCell>
        <mxCell id="CSjr7Klqc6vboo9VAY52-17" value="Was ist ein infektiologisches Surveillance System?" style="rounded=0;whiteSpace=wrap;html=1;fontSize=55;fontColor=#000000;fillColor=none;strokeColor=none;align=left;" parent="CSjr7Klqc6vboo9VAY52-16" vertex="1">
          <mxGeometry x="88" width="1539" height="106" as="geometry" />
        </mxCell>
        <mxCell id="CSjr7Klqc6vboo9VAY52-18" value="" style="endArrow=none;html=1;rounded=0;fontSize=55;" parent="CSjr7Klqc6vboo9VAY52-16" edge="1">
          <mxGeometry width="50" height="50" relative="1" as="geometry">
            <mxPoint y="107" as="sourcePoint" />
            <mxPoint x="2757.000000000001" y="107" as="targetPoint" />
          </mxGeometry>
        </mxCell>
        <mxCell id="CSjr7Klqc6vboo9VAY52-19" value="" style="endArrow=none;html=1;rounded=0;fontSize=55;" parent="CSjr7Klqc6vboo9VAY52-16" edge="1">
          <mxGeometry width="50" height="50" relative="1" as="geometry">
            <mxPoint y="9.094947017729282e-13" as="sourcePoint" />
            <mxPoint x="2757.000000000001" y="9.094947017729282e-13" as="targetPoint" />
          </mxGeometry>
        </mxCell>
        <mxCell id="vuk5CLJeXbkoHdhwvt_M-1" value="Offene Daten" style="edgeStyle=orthogonalEdgeStyle;curved=1;orthogonalLoop=1;jettySize=auto;html=1;exitX=1;exitY=0.5;exitDx=0;exitDy=0;fontSize=33;endArrow=classic;endFill=1;strokeWidth=10;fillColor=#dae8fc;strokeColor=#1F78B4;" parent="1" edge="1">
          <mxGeometry relative="1" as="geometry">
            <mxPoint x="928.0000000000001" y="1930.497692307691" as="sourcePoint" />
            <mxPoint x="1317.58" y="1930.5" as="targetPoint" />
          </mxGeometry>
        </mxCell>
        <mxCell id="vuk5CLJeXbkoHdhwvt_M-3" style="orthogonalLoop=1;jettySize=auto;html=1;fontSize=30;endArrow=classic;endFill=1;strokeWidth=10;fillColor=#d5e8d4;strokeColor=#33a02c;rounded=0;entryX=1;entryY=0.75;entryDx=0;entryDy=0;exitX=0;exitY=0.75;exitDx=0;exitDy=0;" parent="1" source="kd0Iuf0_5TcYoFRnLQND-7" target="kd0Iuf0_5TcYoFRnLQND-17" edge="1">
          <mxGeometry relative="1" as="geometry">
            <mxPoint x="2308" y="1896" as="sourcePoint" />
            <mxPoint x="1333" y="1823" as="targetPoint" />
          </mxGeometry>
        </mxCell>
        <mxCell id="vuk5CLJeXbkoHdhwvt_M-4" value="Lageberichte" style="edgeLabel;html=1;align=center;verticalAlign=middle;resizable=0;points=[];fontSize=33;" parent="vuk5CLJeXbkoHdhwvt_M-3" vertex="1" connectable="0">
          <mxGeometry x="0.1872" y="1" relative="1" as="geometry">
            <mxPoint x="43" y="-4" as="offset" />
          </mxGeometry>
        </mxCell>
        <mxCell id="vuk5CLJeXbkoHdhwvt_M-5" value="&lt;font style=&quot;font-size: 33px;&quot;&gt;Empfehlungen&lt;/font&gt;" style="edgeStyle=orthogonalEdgeStyle;orthogonalLoop=1;jettySize=auto;html=1;exitX=0.25;exitY=1;exitDx=0;exitDy=0;fontSize=33;endArrow=classic;endFill=1;strokeWidth=10;fillColor=#f8cecc;strokeColor=#E31A1C;rounded=1;entryX=0.75;entryY=1;entryDx=0;entryDy=0;" parent="1" source="kd0Iuf0_5TcYoFRnLQND-9" target="kd0Iuf0_5TcYoFRnLQND-7" edge="1">
          <mxGeometry relative="1" as="geometry">
            <mxPoint x="580.4200000000001" y="1331.3999999999996" as="sourcePoint" />
            <mxPoint x="2700.583636363637" y="1331.3999999999996" as="targetPoint" />
            <Array as="points">
              <mxPoint x="483" y="2286" />
              <mxPoint x="2772" y="2286" />
            </Array>
          </mxGeometry>
        </mxCell>
        <mxCell id="vuk5CLJeXbkoHdhwvt_M-6" value="Daten" style="edgeStyle=orthogonalEdgeStyle;curved=1;orthogonalLoop=1;jettySize=auto;html=1;exitX=0.75;exitY=0;exitDx=0;exitDy=0;fontSize=33;endArrow=classic;endFill=1;strokeWidth=10;fillColor=#dae8fc;strokeColor=#6c8ebf;entryX=0.75;entryY=1;entryDx=0;entryDy=0;" parent="1" source="kd0Iuf0_5TcYoFRnLQND-8" target="kd0Iuf0_5TcYoFRnLQND-17" edge="1">
          <mxGeometry relative="1" as="geometry">
            <mxPoint x="938" y="1940.497692307691" as="sourcePoint" />
            <mxPoint x="1327.5800000000004" y="1940.5" as="targetPoint" />
          </mxGeometry>
        </mxCell>
        <mxCell id="vuk5CLJeXbkoHdhwvt_M-7" value="&lt;font style=&quot;font-size: 33px;&quot;&gt;Empfehlungen&lt;/font&gt;" style="edgeStyle=orthogonalEdgeStyle;curved=1;orthogonalLoop=1;jettySize=auto;html=1;exitX=0.179;exitY=-0.019;exitDx=0;exitDy=0;fontSize=33;endArrow=classic;endFill=1;strokeWidth=10;fillColor=#f8cecc;strokeColor=#b85450;exitPerimeter=0;" parent="1" source="kd0Iuf0_5TcYoFRnLQND-8" edge="1">
          <mxGeometry relative="1" as="geometry">
            <mxPoint x="943.4200000000001" y="1881.9976923076924" as="sourcePoint" />
            <mxPoint x="1435" y="1941" as="targetPoint" />
          </mxGeometry>
        </mxCell>
        <mxCell id="vuk5CLJeXbkoHdhwvt_M-8" value="" style="edgeStyle=orthogonalEdgeStyle;rounded=1;orthogonalLoop=1;jettySize=auto;html=1;entryX=0.5;entryY=1;entryDx=0;entryDy=0;fillColor=#f5f5f5;strokeColor=#000000;strokeWidth=10;exitX=0.5;exitY=0;exitDx=0;exitDy=0;fontSize=30;" parent="1" source="kd0Iuf0_5TcYoFRnLQND-17" target="kd0Iuf0_5TcYoFRnLQND-27" edge="1">
          <mxGeometry relative="1" as="geometry">
            <mxPoint x="1936.3000000000002" y="1556.6" as="sourcePoint" />
            <mxPoint x="2631.583636363637" y="1753" as="targetPoint" />
          </mxGeometry>
        </mxCell>
        <mxCell id="vuk5CLJeXbkoHdhwvt_M-128" value="" style="group" parent="1" vertex="1" connectable="0">
          <mxGeometry x="1642.9990342679127" y="718" width="1055.0021183800625" height="401" as="geometry" />
        </mxCell>
        <mxCell id="fZpmpn9y3ByHib3t7wht-2" value="Klassifizierung" style="rounded=1;whiteSpace=wrap;html=1;fillColor=#f5f5f5;fontColor=#333333;strokeColor=#666666;fontSize=27;strokeWidth=3;" parent="vuk5CLJeXbkoHdhwvt_M-128" vertex="1">
          <mxGeometry y="132" width="228.70249221183806" height="100" as="geometry" />
        </mxCell>
        <mxCell id="fZpmpn9y3ByHib3t7wht-3" value="Bewertung" style="rounded=1;whiteSpace=wrap;html=1;fillColor=#f5f5f5;strokeColor=#666666;fontSize=27;fontColor=#333333;strokeWidth=3;" parent="vuk5CLJeXbkoHdhwvt_M-128" vertex="1">
          <mxGeometry x="421.9998130841125" width="228.70249221183806" height="100" as="geometry" />
        </mxCell>
        <mxCell id="fZpmpn9y3ByHib3t7wht-6" value="&amp;nbsp;Daten&amp;nbsp; " style="edgeStyle=orthogonalEdgeStyle;rounded=0;orthogonalLoop=1;jettySize=auto;html=1;exitX=0.5;exitY=0;exitDx=0;exitDy=0;entryX=0;entryY=0.5;entryDx=0;entryDy=0;fillColor=#dae8fc;strokeColor=#1f78b4;strokeWidth=10;fontSize=27;" parent="vuk5CLJeXbkoHdhwvt_M-128" source="fZpmpn9y3ByHib3t7wht-2" target="fZpmpn9y3ByHib3t7wht-3" edge="1">
          <mxGeometry x="0.1938" relative="1" as="geometry">
            <mxPoint as="offset" />
          </mxGeometry>
        </mxCell>
        <mxCell id="fZpmpn9y3ByHib3t7wht-4" value="Entscheidung" style="rounded=1;whiteSpace=wrap;html=1;fillColor=#f5f5f5;strokeColor=#666666;fontSize=27;fontColor=#333333;strokeWidth=3;" parent="vuk5CLJeXbkoHdhwvt_M-128" vertex="1">
          <mxGeometry x="826.2996261682244" y="132" width="228.70249221183806" height="100" as="geometry" />
        </mxCell>
        <mxCell id="fZpmpn9y3ByHib3t7wht-7" value="&amp;nbsp;Bericht&amp;nbsp; " style="edgeStyle=orthogonalEdgeStyle;rounded=0;orthogonalLoop=1;jettySize=auto;html=1;exitX=1;exitY=0.5;exitDx=0;exitDy=0;fillColor=#d5e8d4;strokeColor=#33a02c;strokeWidth=10;fontSize=27;" parent="vuk5CLJeXbkoHdhwvt_M-128" source="fZpmpn9y3ByHib3t7wht-3" target="fZpmpn9y3ByHib3t7wht-4" edge="1">
          <mxGeometry x="-0.2243" relative="1" as="geometry">
            <mxPoint x="-1" as="offset" />
          </mxGeometry>
        </mxCell>
        <mxCell id="fZpmpn9y3ByHib3t7wht-12" value="&amp;nbsp;Ereignis&amp;nbsp; " style="edgeStyle=orthogonalEdgeStyle;rounded=0;orthogonalLoop=1;jettySize=auto;html=1;fontSize=27;endArrow=classic;endFill=1;strokeWidth=10;fillColor=#f5f5f5;strokeColor=#666666;startArrow=none;spacingTop=0;spacingLeft=0;" parent="vuk5CLJeXbkoHdhwvt_M-128" source="fZpmpn9y3ByHib3t7wht-5" target="fZpmpn9y3ByHib3t7wht-2" edge="1">
          <mxGeometry x="-0.2736" relative="1" as="geometry">
            <mxPoint x="559.0009657320873" y="344" as="sourcePoint" />
            <mxPoint x="-1095.34" y="320.20000000000005" as="targetPoint" />
            <Array as="points" />
            <mxPoint as="offset" />
          </mxGeometry>
        </mxCell>
        <mxCell id="fZpmpn9y3ByHib3t7wht-5" value="&lt;div style=&quot;font-size: 27px;&quot;&gt;Infektions-&lt;/div&gt;&lt;div style=&quot;font-size: 27px;&quot;&gt;Krankheiten&lt;br style=&quot;font-size: 27px;&quot;&gt;&lt;/div&gt;" style="rounded=1;whiteSpace=wrap;html=1;fillColor=#f5f5f5;strokeColor=#666666;fontSize=27;fontColor=#333333;strokeWidth=3;" parent="vuk5CLJeXbkoHdhwvt_M-128" vertex="1">
          <mxGeometry x="421.9998130841125" y="301" width="228.70249221183806" height="100" as="geometry" />
        </mxCell>
        <mxCell id="vuk5CLJeXbkoHdhwvt_M-124" value="&amp;nbsp;Maßnahme&amp;nbsp; " style="edgeStyle=orthogonalEdgeStyle;rounded=0;orthogonalLoop=1;jettySize=auto;html=1;fontSize=27;endArrow=classic;endFill=1;strokeWidth=10;fillColor=#f5f5f5;strokeColor=#E31A1C;startArrow=none;exitX=0.5;exitY=1;exitDx=0;exitDy=0;entryX=1;entryY=0.5;entryDx=0;entryDy=0;" parent="vuk5CLJeXbkoHdhwvt_M-128" source="fZpmpn9y3ByHib3t7wht-4" target="fZpmpn9y3ByHib3t7wht-5" edge="1">
          <mxGeometry x="0.1083" y="2" relative="1" as="geometry">
            <mxPoint x="428.2994392523367" y="361" as="sourcePoint" />
            <mxPoint x="124.36096573208692" y="242" as="targetPoint" />
            <Array as="points" />
            <mxPoint as="offset" />
          </mxGeometry>
        </mxCell>
        <mxCell id="vuk5CLJeXbkoHdhwvt_M-129" value="§8" style="text;html=1;strokeColor=none;fillColor=none;align=left;verticalAlign=middle;whiteSpace=wrap;rounded=0;fontSize=26;flipV=0;fontColor=#FFFFFF;" parent="1" vertex="1">
          <mxGeometry x="1684" y="1582" width="42" height="30" as="geometry" />
        </mxCell>
        <mxCell id="vuk5CLJeXbkoHdhwvt_M-130" value="Europa" style="rounded=1;whiteSpace=wrap;html=1;fillColor=#00345E;strokeColor=none;strokeWidth=3;fontStyle=0;fontSize=51;fontColor=#FFFFFF;" parent="1" vertex="1">
          <mxGeometry x="352" y="1582" width="210.58" height="83" as="geometry" />
        </mxCell>
        <mxCell id="vuk5CLJeXbkoHdhwvt_M-131" value="" style="edgeStyle=orthogonalEdgeStyle;rounded=1;orthogonalLoop=1;jettySize=auto;html=1;exitX=0.205;exitY=-0.028;exitDx=0;exitDy=0;fillColor=#dae8fc;strokeColor=#1f78b4;strokeWidth=10;fontSize=30;exitPerimeter=0;" parent="1" source="kd0Iuf0_5TcYoFRnLQND-9" target="vuk5CLJeXbkoHdhwvt_M-130" edge="1">
          <mxGeometry relative="1" as="geometry">
            <mxPoint x="1337.5" y="2140.6923076923076" as="sourcePoint" />
            <mxPoint x="643.4200000000001" y="1953" as="targetPoint" />
          </mxGeometry>
        </mxCell>
        <mxCell id="BKuAPmNaPNa7pb01AUUk-1" value="§ 11" style="text;html=1;strokeColor=none;fillColor=none;align=left;verticalAlign=middle;whiteSpace=wrap;rounded=0;fontSize=26;flipV=0;" parent="1" vertex="1">
          <mxGeometry x="1197" y="2084" width="57" height="30" as="geometry" />
        </mxCell>
        <mxCell id="BKuAPmNaPNa7pb01AUUk-4" value="§ 4" style="text;html=1;strokeColor=none;fillColor=none;align=left;verticalAlign=middle;whiteSpace=wrap;rounded=0;fontSize=26;flipV=0;" parent="1" vertex="1">
          <mxGeometry x="1750" y="2300" width="57" height="30" as="geometry" />
        </mxCell>
        <mxCell id="uH3QIjHQhJmXGDNUcWax-1" value="" style="rounded=0;whiteSpace=wrap;html=1;fontSize=26;fontColor=#FFFFFF;strokeColor=none;fillColor=none;" vertex="1" parent="1">
          <mxGeometry x="1420" y="2414" width="120" height="60" as="geometry" />
        </mxCell>
      </root>
    </mxGraphModel>
  </diagram>
</mxfile>
